<?xml version="1.0" standalone="no"?>
<!DOCTYPE svg PUBLIC "-//W3C//DTD SVG 20010904//EN"
 "http://www.w3.org/TR/2001/REC-SVG-20010904/DTD/svg10.dtd">
<svg version="1.0" xmlns="http://www.w3.org/2000/svg"
 width="1102.000000pt" height="748.000000pt" viewBox="0 0 1102.000000 748.000000"
 preserveAspectRatio="xMidYMid meet">

<g transform="translate(0.000000,748.000000) scale(0.100000,-0.100000)"
fill="#000000" stroke="none">
<path d="M6828 7417 c-18 -18 -56 -78 -84 -132 -49 -97 -52 -101 -110 -130
-55 -27 -68 -29 -179 -31 -145 -1 -198 -8 -335 -41 -322 -77 -793 -303 -1090
-522 -292 -216 -530 -420 -770 -660 -270 -270 -429 -482 -504 -672 -26 -68
-82 -280 -117 -449 -10 -52 -31 -143 -46 -202 l-26 -107 -76 -68 c-139 -124
-320 -314 -395 -413 -124 -165 -170 -290 -147 -395 57 -254 319 -437 605 -423
148 8 259 63 318 158 21 34 31 70 43 150 41 294 82 421 162 494 34 32 83 42
114 25 73 -38 281 -194 294 -219 20 -38 19 -58 -6 -214 -20 -117 -27 -140 -69
-216 -26 -47 -73 -134 -105 -195 -32 -60 -80 -150 -107 -199 -26 -49 -48 -92
-48 -95 0 -3 -6 -14 -14 -23 -12 -16 -18 -15 -87 9 -58 21 -98 28 -183 31
-135 5 -194 -7 -312 -63 -151 -73 -261 -197 -322 -367 -23 -65 -26 -87 -26
-203 0 -117 3 -137 27 -201 42 -112 75 -163 156 -245 121 -120 242 -176 408
-186 152 -10 270 23 399 109 168 112 272 302 276 502 0 42 6 80 12 85 6 5 117
16 246 25 129 9 289 21 355 26 66 5 189 14 274 21 85 6 173 17 197 24 36 11
209 107 734 410 423 244 531 305 539 305 7 0 23 -144 26 -234 0 -4 -36 -20
-81 -35 -108 -35 -183 -82 -262 -166 -72 -76 -129 -174 -158 -270 -24 -81 -24
-247 0 -335 56 -207 218 -372 436 -446 78 -27 282 -27 360 0 175 59 314 176
387 326 43 87 73 205 73 284 0 217 -133 446 -322 553 -75 43 -198 83 -254 83
l-32 0 -6 73 c-4 39 -11 117 -16 172 -30 308 -42 472 -37 504 3 20 91 243 196
496 106 253 274 657 374 897 l181 438 94 52 c104 59 223 147 322 236 l65 59
-55 50 -55 51 -61 -57 c-111 -104 -256 -205 -371 -257 -67 -31 -167 -68 -205
-78 -27 -6 -28 -5 -28 33 0 55 -24 71 -163 105 -94 22 -123 34 -146 57 -42 41
-49 96 -20 155 28 58 79 110 115 117 16 3 115 -1 219 -9 333 -27 368 -25 530
23 152 46 185 68 185 124 0 43 -21 78 -124 210 -103 132 -173 246 -215 346
-38 94 -69 140 -148 224 -63 66 -132 121 -463 366 -74 55 -157 119 -185 141
-65 55 -109 57 -157 9z m242 -253 c80 -60 193 -143 250 -185 58 -43 136 -106
174 -141 l70 -65 -22 -34 c-42 -68 -183 -189 -343 -296 -124 -83 -362 -223
-379 -223 -9 0 -43 9 -76 20 l-59 20 -15 -21 c-8 -11 -28 -36 -44 -56 -24 -28
-27 -36 -15 -44 19 -12 163 -55 332 -99 26 -7 47 -18 47 -25 0 -6 -43 -73 -95
-149 -107 -153 -118 -176 -106 -209 13 -33 35 -48 94 -63 363 -89 339 -82 328
-103 -10 -18 -81 -29 -346 -51 -66 -5 -167 -14 -225 -20 -57 -5 -107 -7 -111
-2 -3 4 -23 77 -43 162 -21 85 -77 317 -126 515 -48 198 -107 439 -130 535
-23 96 -50 205 -60 243 -10 37 -14 70 -9 73 25 15 176 34 277 34 86 0 135 5
185 19 37 11 68 19 68 18 1 -1 3 -22 4 -47 6 -82 16 -131 29 -136 8 -3 30 6
50 20 l37 25 2 113 c2 110 3 115 44 202 27 56 47 86 55 83 7 -2 78 -54 158
-113z m-1041 -306 c10 -39 80 -324 212 -868 28 -113 72 -296 100 -407 27 -111
49 -206 49 -211 0 -5 -36 -50 -81 -101 l-81 -91 -209 0 -209 0 -201 178 c-111
97 -261 229 -334 292 -217 189 -447 392 -490 432 -22 21 -43 38 -47 38 -32 0
15 46 177 173 5 4 50 39 100 78 198 156 339 243 598 368 182 88 355 159 393
161 6 0 16 -19 23 -42z m1578 -350 c31 -34 36 -63 18 -97 -45 -88 -165 -56
-165 44 0 65 102 102 147 53z m207 -171 c20 -29 56 -78 81 -110 25 -32 45 -62
45 -67 0 -10 -38 -25 -129 -50 -69 -18 -85 -19 -225 -8 -83 6 -155 15 -160 19
-4 4 11 21 35 38 144 100 184 132 236 187 65 69 64 69 117 -9z m-3098 -383
c114 -99 219 -191 284 -250 25 -22 140 -123 255 -224 389 -341 470 -413 473
-421 3 -7 -86 -183 -108 -214 -4 -5 -26 -46 -50 -90 -117 -220 -183 -335 -189
-335 -8 0 -219 107 -236 120 -5 4 -77 43 -160 85 -82 43 -154 81 -160 85 -11
8 -54 31 -390 210 -498 265 -525 280 -525 296 0 13 20 52 63 124 21 35 116
170 127 180 3 3 24 29 48 58 96 116 441 461 463 462 4 0 51 -39 105 -86z
m2704 -771 c-45 -109 -158 -380 -250 -603 -93 -223 -218 -524 -278 -670 -94
-226 -113 -265 -134 -271 -13 -3 -192 -9 -398 -13 -206 -4 -395 -9 -420 -11
-130 -10 -702 -16 -696 -7 3 5 17 88 32 182 l25 173 88 161 c49 89 166 305
261 481 204 378 211 390 253 415 29 18 51 20 210 20 l177 0 48 52 c122 134
145 157 170 166 15 6 133 20 262 32 129 11 282 25 340 30 126 12 284 36 342
54 24 7 45 12 46 10 2 -1 -33 -92 -78 -201z m-3524 -133 c5 -5 63 -37 129 -71
66 -33 143 -73 170 -89 79 -44 171 -92 300 -160 66 -34 125 -66 130 -70 6 -4
55 -31 110 -60 120 -63 172 -91 375 -201 85 -46 164 -89 175 -95 28 -14 23
-32 -52 -168 -40 -74 -68 -139 -73 -170 -17 -103 -29 -182 -36 -236 -6 -53
-10 -58 -105 -156 -127 -131 -127 -131 -16 -239 l82 -80 -36 -3 c-51 -4 -449
153 -449 177 0 9 7 54 16 101 43 235 49 299 32 321 -15 18 -389 278 -430 298
-49 25 -110 97 -129 153 l-18 53 -65 3 -66 3 0 -35 c0 -38 36 -128 70 -176
l21 -30 -54 -55 c-64 -64 -115 -163 -150 -291 -28 -102 -47 -198 -47 -237 0
-62 -22 -126 -53 -157 -52 -51 -90 -63 -202 -63 -84 0 -111 4 -168 26 -121 47
-192 107 -236 201 -64 134 -34 252 104 408 77 88 306 301 398 371 31 23 60 53
66 67 13 30 64 238 92 375 11 55 29 132 39 170 10 39 21 82 24 98 6 27 32 37
52 17z m2908 -1587 c3 -16 8 -62 11 -103 l6 -75 -108 -61 c-59 -33 -247 -141
-418 -239 -641 -369 -760 -436 -794 -445 -20 -5 -171 -18 -336 -29 -303 -21
-520 -37 -652 -47 l-71 -6 -20 46 c-28 62 -76 132 -130 188 l-45 46 144 271
c79 149 149 271 155 271 5 0 110 -40 231 -90 l221 -90 141 0 c133 0 141 1 167
24 21 18 28 32 28 61 0 33 -8 44 -86 118 -77 72 -113 126 -96 142 2 2 193 9
424 15 230 7 527 15 659 19 132 4 313 9 402 9 l161 2 6 -27z m-2820 -743 c36
-12 66 -25 66 -29 0 -8 -93 -164 -163 -274 -20 -31 -37 -59 -37 -62 0 -2 -14
-27 -32 -54 -17 -28 -29 -54 -26 -57 4 -3 77 2 165 11 315 32 338 34 356 35
27 0 23 -110 -7 -199 -78 -229 -299 -366 -537 -333 -287 41 -487 330 -414 602
47 179 183 319 355 366 72 20 198 17 274 -6z m3117 4 c160 -48 277 -155 335
-311 34 -90 35 -227 3 -323 -127 -386 -652 -458 -878 -121 -48 72 -66 118 -82
213 -34 203 83 417 277 509 45 22 89 39 97 39 21 0 31 -76 54 -389 l6 -83 66
7 c36 4 67 8 69 10 2 2 -10 170 -27 355 -5 52 -7 98 -4 103 6 11 23 9 84 -9z
m-2880 -161 c25 -28 74 -121 68 -128 -7 -7 -142 -24 -191 -25 -22 0 -38 5 -38
11 0 13 73 133 98 161 16 19 36 13 63 -19z"/>
<path d="M220 1382 c0 -37 1 -38 47 -50 57 -16 127 -83 136 -132 4 -18 7 -238
7 -489 0 -424 -2 -459 -19 -497 -23 -50 -79 -95 -129 -103 -35 -6 -37 -8 -40
-49 l-3 -42 295 0 296 0 0 40 c0 35 -3 40 -27 46 -52 11 -81 25 -112 57 -54
51 -61 82 -61 253 l0 154 73 0 c102 1 262 24 330 48 191 68 287 198 287 387 0
211 -125 353 -352 400 -53 12 -148 15 -399 15 l-329 0 0 -38z m677 -77 c74
-21 132 -70 168 -140 27 -53 30 -68 30 -154 0 -239 -115 -340 -387 -341 l-98
0 0 324 c0 250 3 326 13 330 23 9 221 -5 274 -19z"/>
<path d="M1390 1382 c0 -38 1 -38 52 -51 37 -10 63 -26 94 -56 64 -65 66 -81
62 -585 -3 -432 -3 -435 -26 -478 -23 -44 -99 -102 -133 -102 -38 0 -49 -12
-49 -51 l0 -39 525 0 525 0 0 130 0 130 -45 0 c-41 0 -45 -2 -45 -24 0 -29
-35 -82 -73 -110 -27 -20 -43 -21 -251 -24 l-223 -3 -6 167 c-4 92 -7 221 -7
287 l0 120 83 -5 c121 -8 187 -57 206 -152 6 -28 11 -31 49 -34 l42 -3 0 236
0 236 -41 -3 c-40 -3 -43 -5 -55 -47 -26 -89 -120 -146 -231 -139 l-48 3 -3
45 c-2 25 -1 145 3 268 l7 222 215 0 c234 0 248 -3 296 -59 14 -17 28 -44 32
-61 6 -28 10 -30 51 -30 l44 0 0 125 0 125 -525 0 -525 0 0 -38z"/>
<path d="M2690 1382 c0 -37 1 -38 47 -50 57 -16 117 -74 132 -129 15 -53 15
-905 0 -958 -21 -74 -69 -119 -144 -135 -27 -5 -30 -10 -33 -48 l-3 -42 295 0
296 0 0 40 c0 35 -3 40 -27 45 -61 12 -117 50 -144 95 -25 42 -28 55 -34 206
l-6 161 125 6 c240 12 381 60 474 162 73 79 96 144 96 270 0 81 -5 111 -24
160 -29 74 -111 159 -190 196 -109 52 -169 59 -529 59 l-331 0 0 -38z m675
-79 c115 -37 172 -105 195 -232 13 -75 0 -182 -30 -241 -29 -57 -85 -107 -149
-131 -44 -17 -84 -23 -185 -27 l-128 -4 7 323 c4 178 10 328 13 333 8 14 220
-2 277 -21z"/>
<path d="M3900 1382 c0 -37 1 -38 47 -51 63 -16 106 -51 132 -104 20 -42 21
-56 21 -504 0 -514 1 -502 -69 -566 -38 -34 -54 -41 -106 -49 -16 -3 -21 -12
-23 -46 l-3 -42 520 0 521 0 0 130 0 130 -39 0 c-37 0 -39 -2 -45 -36 -9 -46
-73 -111 -118 -119 -18 -3 -123 -5 -233 -3 l-200 3 -3 283 -2 282 57 0 c88 0
132 -16 180 -66 30 -31 45 -56 49 -84 6 -40 7 -40 50 -40 l44 0 0 235 0 235
-43 0 c-43 0 -43 0 -55 -47 -25 -92 -124 -151 -237 -141 l-40 3 0 265 0 265
218 3 c179 2 222 0 247 -13 35 -18 75 -69 84 -107 6 -25 11 -28 46 -28 l40 0
0 125 0 125 -520 0 -520 0 0 -38z"/>
<path d="M6000 1382 c0 -37 1 -38 49 -51 60 -15 126 -80 136 -133 3 -18 5
-245 3 -505 l-3 -471 -31 -39 c-32 -39 -78 -68 -126 -78 -25 -5 -28 -10 -28
-45 l0 -40 296 0 295 0 -3 41 c-3 41 -4 42 -51 54 -56 14 -102 54 -128 110
-15 33 -19 65 -19 193 l0 152 68 0 c177 0 335 35 437 95 72 42 116 90 153 164
25 52 27 65 27 176 0 108 -3 125 -26 175 -52 110 -169 194 -314 225 -54 11
-148 15 -402 15 l-333 0 0 -38z m674 -76 c79 -23 135 -70 171 -141 28 -55 30
-68 30 -165 0 -95 -3 -111 -28 -162 -58 -117 -137 -157 -329 -165 l-128 -6 0
325 c0 179 3 328 6 331 12 12 224 -1 278 -17z"/>
<path d="M7522 1243 c-33 -98 -80 -236 -105 -308 -25 -71 -89 -256 -141 -410
-67 -193 -105 -290 -125 -315 -37 -47 -107 -89 -161 -98 -44 -7 -45 -8 -48
-50 l-3 -42 238 2 238 3 1 30 c1 37 -12 55 -38 55 -30 0 -85 61 -93 103 -6 29
1 61 30 147 l38 110 243 0 242 0 43 -127 c23 -70 42 -140 41 -156 -1 -34 -35
-75 -66 -79 -17 -2 -22 -11 -24 -45 l-3 -43 241 0 241 0 -3 42 c-3 41 -5 43
-40 49 -45 7 -98 42 -126 83 -12 17 -57 137 -101 266 -43 129 -135 398 -202
598 l-124 362 -66 0 -67 0 -60 -177z m182 -368 c53 -160 96 -293 96 -298 0 -4
-93 -7 -206 -7 -161 0 -205 3 -202 13 3 6 49 143 104 304 54 161 102 289 105
285 4 -4 50 -138 103 -297z"/>
<path d="M8450 1380 c0 -34 3 -40 20 -40 32 0 92 -28 123 -58 64 -60 62 -44
65 -537 4 -480 2 -501 -45 -563 -25 -33 -83 -66 -136 -77 -26 -5 -28 -9 -25
-43 l3 -37 523 -3 522 -2 0 130 0 130 -44 0 c-43 0 -44 -1 -49 -38 -7 -42 -54
-94 -100 -111 -32 -12 -433 -15 -440 -3 -3 4 -6 131 -8 282 l-4 275 57 3 c32
2 76 -2 98 -8 56 -15 113 -74 129 -133 13 -46 15 -47 52 -47 l39 0 0 235 0
235 -40 0 c-37 0 -40 -2 -50 -40 -13 -47 -60 -104 -104 -127 -19 -10 -58 -16
-106 -17 l-75 -1 1 50 c0 28 2 148 2 268 l2 217 216 0 c179 0 222 -3 250 -16
40 -19 72 -60 80 -103 6 -29 9 -31 50 -31 l44 0 0 125 0 125 -525 0 -525 0 0
-40z"/>
<path d="M9769 1348 c0 -35 -4 -118 -7 -186 l-7 -122 46 0 c44 0 46 1 57 38
31 102 138 199 245 222 30 6 131 9 235 8 l183 -3 -385 -592 c-212 -326 -390
-602 -396 -613 -6 -12 -10 -33 -8 -48 l3 -27 521 -3 522 -2 6 137 c4 76 9 159
12 186 l6 47 -51 0 c-39 0 -51 -4 -51 -15 0 -30 -49 -113 -90 -153 -88 -86
-160 -103 -438 -102 -170 1 -203 4 -198 15 3 8 40 67 83 132 44 65 180 275
303 466 124 191 262 405 307 475 66 101 83 135 83 165 l0 37 -490 0 -490 0 -1
-62z"/>
</g>
</svg>
